<?xml version="1.0" encoding="utf-8"?><!-- Uploaded to: SVG Repo, www.svgrepo.com, Generator: SVG Repo Mixer Tools -->
<svg viewBox="0 0 24 24" xmlns="http://www.w3.org/2000/svg">
    <path d="m12 22h-.43a10.16 10.16 0 0 1 -9.57-9.71 10 10 0 0 1 14.12-9.41 1.48 1.48 0 0 1 .77.86 1.47 1.47 0 0 1 -.1 1.16l-1.29 2.38a1.44 1.44 0 0 1 -1.83.64 4.5 4.5 0 0 0 -4.9 1.08 4.41 4.41 0 0 0 -1.16 3.34 4.36 4.36 0 0 0 1.66 3 4.52 4.52 0 0 0 3.45 1 3.89 3.89 0 0 0 2.63-1.57h-2.9a1.45 1.45 0 0 1 -1.45-1.44v-2.68a1.45 1.45 0 0 1 1.45-1.45h8.1a1.46 1.46 0 0 1 1.45 1.44v1.88a10 10 0 0 1 -10 9.48zm0-18a8 8 0 0 0 -8 8.24 8.12 8.12 0 0 0 7.65 7.76 8 8 0 0 0 8.35-7.58v-1.22h-7v1.58h5.31l-.41 1.3a6 6 0 0 1 -4.9 4.25 6.58 6.58 0 0 1 -5-1.33 6.33 6.33 0 0 1 -.72-9.3 6.52 6.52 0 0 1 6.72-1.79l.77-1.43a7.9 7.9 0 0 0 -2.77-.48z"
          fill="#344054"/>
</svg>