<svg width="40" height="40" viewBox="0 0 40 40" fill="none" xmlns="http://www.w3.org/2000/svg">
<path d="M7.75 4C7.75 2.20508 9.20508 0.75 11 0.75H27C27.1212 0.75 27.2375 0.798159 27.3232 0.883885L38.1161 11.6768C38.2018 11.7625 38.25 11.8788 38.25 12V36C38.25 37.7949 36.7949 39.25 35 39.25H11C9.20507 39.25 7.75 37.7949 7.75 36V4Z" fill="white" stroke="#D0D5DD" stroke-width="1.5"/>
<path d="M27 0.5V8C27 10.2091 28.7909 12 31 12H38.5" stroke="#D0D5DD" stroke-width="1.5"/>
<rect x="1.5" y="17" width="27" height="18" rx="2" fill="#099250"/>
<path d="M8.63664 30.15C7.91664 30.15 7.30331 29.9933 6.79664 29.68C6.28997 29.3633 5.90164 28.9233 5.63164 28.36C5.36497 27.7967 5.23164 27.1433 5.23164 26.4C5.23164 25.6567 5.36497 25.0033 5.63164 24.44C5.90164 23.8767 6.28997 23.4383 6.79664 23.125C7.30331 22.8083 7.91664 22.65 8.63664 22.65C9.46664 22.65 10.1533 22.86 10.6966 23.28C11.2433 23.7 11.6233 24.265 11.8366 24.975L10.7766 25.26C10.6366 24.7567 10.3866 24.3617 10.0266 24.075C9.66997 23.7883 9.20664 23.645 8.63664 23.645C8.12664 23.645 7.70164 23.76 7.36164 23.99C7.02164 24.22 6.76497 24.5417 6.59164 24.955C6.42164 25.3683 6.33664 25.85 6.33664 26.4C6.33331 26.95 6.41664 27.4317 6.58664 27.845C6.75997 28.2583 7.01664 28.58 7.35664 28.81C7.69997 29.04 8.12664 29.155 8.63664 29.155C9.20664 29.155 9.66997 29.0117 10.0266 28.725C10.3866 28.435 10.6366 28.04 10.7766 27.54L11.8366 27.825C11.6233 28.535 11.2433 29.1 10.6966 29.52C10.1533 29.94 9.46664 30.15 8.63664 30.15ZM15.8491 30.15C15.3324 30.15 14.8657 30.0617 14.4491 29.885C14.0357 29.705 13.6941 29.45 13.4241 29.12C13.1574 28.7867 12.9841 28.3917 12.9041 27.935L13.9941 27.77C14.1041 28.21 14.3341 28.5533 14.6841 28.8C15.0341 29.0433 15.4424 29.165 15.9091 29.165C16.1991 29.165 16.4657 29.12 16.7091 29.03C16.9524 28.9367 17.1474 28.805 17.2941 28.635C17.4441 28.4617 17.5191 28.255 17.5191 28.015C17.5191 27.885 17.4957 27.77 17.4491 27.67C17.4057 27.57 17.3441 27.4833 17.2641 27.41C17.1874 27.3333 17.0924 27.2683 16.9791 27.215C16.8691 27.1583 16.7474 27.11 16.6141 27.07L14.7691 26.525C14.5891 26.4717 14.4057 26.4033 14.2191 26.32C14.0324 26.2333 13.8607 26.1217 13.7041 25.985C13.5507 25.845 13.4257 25.6733 13.3291 25.47C13.2324 25.2633 13.1841 25.0133 13.1841 24.72C13.1841 24.2767 13.2974 23.9017 13.5241 23.595C13.7541 23.285 14.0641 23.0517 14.4541 22.895C14.8441 22.735 15.2807 22.655 15.7641 22.655C16.2507 22.6617 16.6857 22.7483 17.0691 22.915C17.4557 23.0817 17.7757 23.3217 18.0291 23.635C18.2857 23.945 18.4624 24.3217 18.5591 24.765L17.4391 24.955C17.3891 24.685 17.2824 24.4533 17.1191 24.26C16.9557 24.0633 16.7557 23.9133 16.5191 23.81C16.2824 23.7033 16.0257 23.6483 15.7491 23.645C15.4824 23.6383 15.2374 23.6783 15.0141 23.765C14.7941 23.8517 14.6174 23.9733 14.4841 24.13C14.3541 24.2867 14.2891 24.4667 14.2891 24.67C14.2891 24.87 14.3474 25.0317 14.4641 25.155C14.5807 25.2783 14.7241 25.3767 14.8941 25.45C15.0674 25.52 15.2391 25.5783 15.4091 25.625L16.7391 26C16.9057 26.0467 17.0941 26.11 17.3041 26.19C17.5174 26.2667 17.7224 26.375 17.9191 26.515C18.1191 26.655 18.2841 26.8417 18.4141 27.075C18.5441 27.305 18.6091 27.595 18.6091 27.945C18.6091 28.3083 18.5357 28.6283 18.3891 28.905C18.2424 29.1783 18.0407 29.4083 17.7841 29.595C17.5307 29.7783 17.2374 29.9167 16.9041 30.01C16.5707 30.1033 16.2191 30.15 15.8491 30.15ZM21.1693 30L18.8293 22.8H19.9143L21.9093 28.945L23.9293 22.8H25.0143L22.6743 30H21.1693Z" fill="white"/>
</svg>
