<svg width="40" height="40" viewBox="0 0 40 40" fill="none" xmlns="http://www.w3.org/2000/svg">
<path d="M7.75 4C7.75 2.20508 9.20508 0.75 11 0.75H27C27.1212 0.75 27.2375 0.798159 27.3232 0.883885L38.1161 11.6768C38.2018 11.7625 38.25 11.8788 38.25 12V36C38.25 37.7949 36.7949 39.25 35 39.25H11C9.20507 39.25 7.75 37.7949 7.75 36V4Z" fill="white" stroke="#D0D5DD" stroke-width="1.5"/>
<path d="M27 0.5V8C27 10.2091 28.7909 12 31 12H38.5" stroke="#D0D5DD" stroke-width="1.5"/>
<rect x="2" y="17" width="34" height="18" rx="2" fill="#155EEF"/>
<path d="M5.85234 30V22.8H8.10734C8.17401 22.8 8.29734 22.8017 8.47734 22.805C8.66068 22.8083 8.83568 22.8217 9.00234 22.845C9.56568 22.915 10.039 23.1167 10.4223 23.45C10.809 23.7833 11.1007 24.2067 11.2973 24.72C11.494 25.23 11.5923 25.79 11.5923 26.4C11.5923 27.0133 11.494 27.5767 11.2973 28.09C11.1007 28.6 10.809 29.0217 10.4223 29.355C10.039 29.685 9.56568 29.885 9.00234 29.955C8.83568 29.9783 8.66068 29.9917 8.47734 29.995C8.29734 29.9983 8.17401 30 8.10734 30H5.85234ZM6.92234 29.005H8.10734C8.22068 29.005 8.35568 29.0017 8.51234 28.995C8.66901 28.9883 8.80734 28.975 8.92734 28.955C9.29401 28.885 9.59068 28.7267 9.81734 28.48C10.0473 28.23 10.2157 27.9233 10.3223 27.56C10.429 27.1967 10.4823 26.81 10.4823 26.4C10.4823 25.9767 10.4273 25.585 10.3173 25.225C10.2073 24.8617 10.0373 24.5583 9.80734 24.315C9.58068 24.0683 9.28734 23.9117 8.92734 23.845C8.80734 23.8217 8.66734 23.8083 8.50734 23.805C8.35068 23.7983 8.21734 23.795 8.10734 23.795H6.92234V29.005ZM15.7616 30.15C15.0416 30.15 14.4283 29.9933 13.9216 29.68C13.415 29.3633 13.0266 28.9233 12.7566 28.36C12.49 27.7967 12.3566 27.1433 12.3566 26.4C12.3566 25.6567 12.49 25.0033 12.7566 24.44C13.0266 23.8767 13.415 23.4383 13.9216 23.125C14.4283 22.8083 15.0416 22.65 15.7616 22.65C16.4783 22.65 17.09 22.8083 17.5966 23.125C18.1066 23.4383 18.495 23.8767 18.7616 24.44C19.0283 25.0033 19.1616 25.6567 19.1616 26.4C19.1616 27.1433 19.0283 27.7967 18.7616 28.36C18.495 28.9233 18.1066 29.3633 17.5966 29.68C17.09 29.9933 16.4783 30.15 15.7616 30.15ZM15.7616 29.155C16.2716 29.1617 16.695 29.05 17.0316 28.82C17.3716 28.5867 17.6266 28.2633 17.7966 27.85C17.9666 27.4333 18.0516 26.95 18.0516 26.4C18.0516 25.85 17.9666 25.37 17.7966 24.96C17.6266 24.5467 17.3716 24.225 17.0316 23.995C16.695 23.765 16.2716 23.6483 15.7616 23.645C15.2516 23.6383 14.8266 23.75 14.4866 23.98C14.15 24.21 13.8966 24.5333 13.7266 24.95C13.5566 25.3667 13.47 25.85 13.4666 26.4C13.4633 26.95 13.5466 27.4317 13.7166 27.845C13.8866 28.255 14.1416 28.575 14.4816 28.805C14.825 29.035 15.2516 29.1517 15.7616 29.155ZM23.164 30.15C22.444 30.15 21.8307 29.9933 21.324 29.68C20.8173 29.3633 20.429 28.9233 20.159 28.36C19.8923 27.7967 19.759 27.1433 19.759 26.4C19.759 25.6567 19.8923 25.0033 20.159 24.44C20.429 23.8767 20.8173 23.4383 21.324 23.125C21.8307 22.8083 22.444 22.65 23.164 22.65C23.994 22.65 24.6807 22.86 25.224 23.28C25.7707 23.7 26.1507 24.265 26.364 24.975L25.304 25.26C25.164 24.7567 24.914 24.3617 24.554 24.075C24.1973 23.7883 23.734 23.645 23.164 23.645C22.654 23.645 22.229 23.76 21.889 23.99C21.549 24.22 21.2923 24.5417 21.119 24.955C20.949 25.3683 20.864 25.85 20.864 26.4C20.8607 26.95 20.944 27.4317 21.114 27.845C21.2873 28.2583 21.544 28.58 21.884 28.81C22.2273 29.04 22.654 29.155 23.164 29.155C23.734 29.155 24.1973 29.0117 24.554 28.725C24.914 28.435 25.164 28.04 25.304 27.54L26.364 27.825C26.1507 28.535 25.7707 29.1 25.224 29.52C24.6807 29.94 23.994 30.15 23.164 30.15ZM26.5609 30L29.0159 26.355L26.6259 22.8H27.9059L29.6609 25.47L31.4059 22.8H32.6909L30.3009 26.355L32.7509 30H31.4709L29.6609 27.245L27.8459 30H26.5609Z" fill="white"/>
</svg>
