<svg width="40" height="40" viewBox="0 0 40 40" fill="none" xmlns="http://www.w3.org/2000/svg">
<path d="M32 39.25H8C6.20507 39.25 4.75 37.7949 4.75 36V4C4.75 2.20508 6.20508 0.75 8 0.75H24C24.1212 0.75 24.2375 0.798159 24.3232 0.883883L35.1161 11.6768C35.2018 11.7625 35.25 11.8788 35.25 12V36C35.25 37.7949 33.7949 39.25 32 39.25Z" fill="white" stroke="#D0D5DD" stroke-width="1.5"/>
<path d="M24 0.5V8C24 10.2091 25.7909 12 28 12H35.5" stroke="#D0D5DD" stroke-width="1.5"/>
<g clip-path="url(#clip0_10282_2328)">
<g clip-path="url(#clip1_10282_2328)">
<path d="M18.5001 24.75C18.8222 25.1806 19.2332 25.5369 19.7051 25.7947C20.177 26.0525 20.6988 26.2058 21.2351 26.2442C21.7715 26.2826 22.3098 26.2053 22.8137 26.0173C23.3175 25.8294 23.775 25.5353 24.1552 25.155L26.4052 22.905C27.0882 22.1977 27.4662 21.2505 27.4577 20.2672C27.4491 19.284 27.0548 18.3434 26.3595 17.6482C25.6642 16.9529 24.7236 16.5585 23.7404 16.5499C22.7572 16.5414 21.8099 16.9194 21.1026 17.6025L19.8126 18.885M21.5001 23.25C21.1781 22.8194 20.7671 22.4631 20.2952 22.2053C19.8233 21.9475 19.3015 21.7941 18.7652 21.7557C18.2288 21.7173 17.6905 21.7947 17.1866 21.9826C16.6828 22.1706 16.2253 22.4647 15.8451 22.845L13.5951 25.095C12.9121 25.8022 12.5341 26.7495 12.5426 27.7327C12.5512 28.716 12.9455 29.6565 13.6408 30.3518C14.3361 31.0471 15.2767 31.4415 16.2599 31.45C17.2431 31.4585 18.1904 31.0806 18.8976 30.3975L20.1801 29.115" stroke="#0BA5EC" stroke-width="1.5" stroke-linecap="round" stroke-linejoin="round"/>
</g>
</g>
<defs>
<clipPath id="clip0_10282_2328">
<rect width="18" height="18" fill="white" transform="translate(11 15)"/>
</clipPath>
<clipPath id="clip1_10282_2328">
<rect width="18" height="18" fill="white" transform="translate(11 15)"/>
</clipPath>
</defs>
</svg>
