<svg width="40" height="40" viewBox="0 0 40 40" fill="none" xmlns="http://www.w3.org/2000/svg">
<path d="M7.75 4C7.75 2.20508 9.20508 0.75 11 0.75H27C27.1212 0.75 27.2375 0.798159 27.3232 0.883885L38.1161 11.6768C38.2018 11.7625 38.25 11.8788 38.25 12V36C38.25 37.7949 36.7949 39.25 35 39.25H11C9.20507 39.25 7.75 37.7949 7.75 36V4Z" fill="white" stroke="#D0D5DD" stroke-width="1.5"/>
<path d="M27 0.5V8C27 10.2091 28.7909 12 31 12H38.5" stroke="#D0D5DD" stroke-width="1.5"/>
<rect x="2" y="17" width="27" height="18" rx="2" fill="#155EEF"/>
<path d="M6.04863 30V22.8H6.99363L9.60363 28.215L12.1986 22.8H13.1536V29.995H12.1636V25.07L9.83863 30H9.36363L7.03363 25.07V30H6.04863ZM14.5545 30V22.8H17.4645C17.5345 22.8 17.6212 22.8033 17.7245 22.81C17.8278 22.8133 17.9262 22.8233 18.0195 22.84C18.4195 22.9033 18.7528 23.04 19.0195 23.25C19.2895 23.46 19.4912 23.725 19.6245 24.045C19.7578 24.365 19.8245 24.7183 19.8245 25.105C19.8245 25.495 19.7578 25.85 19.6245 26.17C19.4912 26.49 19.2895 26.755 19.0195 26.965C18.7528 27.175 18.4195 27.3117 18.0195 27.375C17.9262 27.3883 17.8262 27.3983 17.7195 27.405C17.6162 27.4117 17.5312 27.415 17.4645 27.415H15.5995V30H14.5545ZM15.5995 26.425H17.4245C17.4912 26.425 17.5645 26.4217 17.6445 26.415C17.7278 26.4083 17.8062 26.3967 17.8795 26.38C18.0928 26.33 18.2645 26.2383 18.3945 26.105C18.5245 25.9683 18.6178 25.8117 18.6745 25.635C18.7312 25.4583 18.7595 25.2817 18.7595 25.105C18.7595 24.9283 18.7312 24.7533 18.6745 24.58C18.6178 24.4033 18.5245 24.2483 18.3945 24.115C18.2645 23.9783 18.0928 23.885 17.8795 23.835C17.8062 23.815 17.7278 23.8017 17.6445 23.795C17.5645 23.7883 17.4912 23.785 17.4245 23.785H15.5995V26.425ZM23.376 30V28.745H20.126V27.755L22.466 22.8H23.661L21.321 27.755H23.376V25.805H24.436V27.755H25.151V28.745H24.436V30H23.376Z" fill="white"/>
</svg>
