<svg width="40" height="40" viewBox="0 0 40 40" fill="none" xmlns="http://www.w3.org/2000/svg">
<path d="M7.75 4C7.75 2.20508 9.20508 0.75 11 0.75H27C27.1212 0.75 27.2375 0.798159 27.3232 0.883885L38.1161 11.6768C38.2018 11.7625 38.25 11.8788 38.25 12V36C38.25 37.7949 36.7949 39.25 35 39.25H11C9.20507 39.25 7.75 37.7949 7.75 36V4Z" fill="white" stroke="#D0D5DD" stroke-width="1.5"/>
<path d="M27 0.5V8C27 10.2091 28.7909 12 31 12H38.5" stroke="#D0D5DD" stroke-width="1.5"/>
<rect x="2" y="17" width="31" height="18" rx="2" fill="#E62E05"/>
<path d="M5.71953 30V22.8H8.62953C8.69953 22.8 8.7862 22.8033 8.88953 22.81C8.99286 22.8133 9.0912 22.8233 9.18453 22.84C9.58453 22.9033 9.91786 23.04 10.1845 23.25C10.4545 23.46 10.6562 23.725 10.7895 24.045C10.9229 24.365 10.9895 24.7183 10.9895 25.105C10.9895 25.495 10.9229 25.85 10.7895 26.17C10.6562 26.49 10.4545 26.755 10.1845 26.965C9.91786 27.175 9.58453 27.3117 9.18453 27.375C9.0912 27.3883 8.9912 27.3983 8.88453 27.405C8.7812 27.4117 8.6962 27.415 8.62953 27.415H6.76453V30H5.71953ZM6.76453 26.425H8.58953C8.6562 26.425 8.72953 26.4217 8.80953 26.415C8.89286 26.4083 8.9712 26.3967 9.04453 26.38C9.25786 26.33 9.42953 26.2383 9.55953 26.105C9.68953 25.9683 9.78286 25.8117 9.83953 25.635C9.8962 25.4583 9.92453 25.2817 9.92453 25.105C9.92453 24.9283 9.8962 24.7533 9.83953 24.58C9.78286 24.4033 9.68953 24.2483 9.55953 24.115C9.42953 23.9783 9.25786 23.885 9.04453 23.835C8.9712 23.815 8.89286 23.8017 8.80953 23.795C8.72953 23.7883 8.6562 23.785 8.58953 23.785H6.76453V26.425ZM11.9891 30V22.8H14.8991C14.9691 22.8 15.0557 22.8033 15.1591 22.81C15.2624 22.8133 15.3607 22.8233 15.4541 22.84C15.8541 22.9033 16.1874 23.04 16.4541 23.25C16.7241 23.46 16.9257 23.725 17.0591 24.045C17.1924 24.365 17.2591 24.7183 17.2591 25.105C17.2591 25.495 17.1924 25.85 17.0591 26.17C16.9257 26.49 16.7241 26.755 16.4541 26.965C16.1874 27.175 15.8541 27.3117 15.4541 27.375C15.3607 27.3883 15.2607 27.3983 15.1541 27.405C15.0507 27.4117 14.9657 27.415 14.8991 27.415H13.0341V30H11.9891ZM13.0341 26.425H14.8591C14.9257 26.425 14.9991 26.4217 15.0791 26.415C15.1624 26.4083 15.2407 26.3967 15.3141 26.38C15.5274 26.33 15.6991 26.2383 15.8291 26.105C15.9591 25.9683 16.0524 25.8117 16.1091 25.635C16.1657 25.4583 16.1941 25.2817 16.1941 25.105C16.1941 24.9283 16.1657 24.7533 16.1091 24.58C16.0524 24.4033 15.9591 24.2483 15.8291 24.115C15.6991 23.9783 15.5274 23.885 15.3141 23.835C15.2407 23.815 15.1624 23.8017 15.0791 23.795C14.9991 23.7883 14.9257 23.785 14.8591 23.785H13.0341V26.425ZM20.0536 30V23.785H17.6586V22.8H23.4936V23.785H21.0986V30H20.0536ZM23.6938 30L26.1488 26.355L23.7587 22.8H25.0388L26.7938 25.47L28.5388 22.8H29.8238L27.4338 26.355L29.8838 30H28.6038L26.7938 27.245L24.9788 30H23.6938Z" fill="white"/>
</svg>
