<svg width="40" height="40" viewBox="0 0 40 40" fill="none" xmlns="http://www.w3.org/2000/svg">
<path d="M7.75 4C7.75 2.20508 9.20508 0.75 11 0.75H27C27.1212 0.75 27.2375 0.798159 27.3232 0.883885L38.1161 11.6768C38.2018 11.7625 38.25 11.8788 38.25 12V36C38.25 37.7949 36.7949 39.25 35 39.25H11C9.20507 39.25 7.75 37.7949 7.75 36V4Z" fill="white" stroke="#D0D5DD" stroke-width="1.5"/>
<path d="M27 0.5V8C27 10.2091 28.7909 12 31 12H38.5" stroke="#D0D5DD" stroke-width="1.5"/>
<rect x="2" y="17" width="31" height="18" rx="2" fill="#099250"/>
<path d="M5.51992 30L7.97492 26.355L5.58492 22.8H6.86492L8.61992 25.47L10.3649 22.8H11.6499L9.25992 26.355L11.7099 30H10.4299L8.61992 27.245L6.80492 30H5.51992ZM12.6066 30V22.8H13.6516V29.015H16.9116V30H12.6066ZM20.3705 30.15C19.8539 30.15 19.3872 30.0617 18.9705 29.885C18.5572 29.705 18.2155 29.45 17.9455 29.12C17.6789 28.7867 17.5055 28.3917 17.4255 27.935L18.5155 27.77C18.6255 28.21 18.8555 28.5533 19.2055 28.8C19.5555 29.0433 19.9639 29.165 20.4305 29.165C20.7205 29.165 20.9872 29.12 21.2305 29.03C21.4739 28.9367 21.6689 28.805 21.8155 28.635C21.9655 28.4617 22.0405 28.255 22.0405 28.015C22.0405 27.885 22.0172 27.77 21.9705 27.67C21.9272 27.57 21.8655 27.4833 21.7855 27.41C21.7089 27.3333 21.6139 27.2683 21.5005 27.215C21.3905 27.1583 21.2689 27.11 21.1355 27.07L19.2905 26.525C19.1105 26.4717 18.9272 26.4033 18.7405 26.32C18.5539 26.2333 18.3822 26.1217 18.2255 25.985C18.0722 25.845 17.9472 25.6733 17.8505 25.47C17.7539 25.2633 17.7055 25.0133 17.7055 24.72C17.7055 24.2767 17.8189 23.9017 18.0455 23.595C18.2755 23.285 18.5855 23.0517 18.9755 22.895C19.3655 22.735 19.8022 22.655 20.2855 22.655C20.7722 22.6617 21.2072 22.7483 21.5905 22.915C21.9772 23.0817 22.2972 23.3217 22.5505 23.635C22.8072 23.945 22.9839 24.3217 23.0805 24.765L21.9605 24.955C21.9105 24.685 21.8039 24.4533 21.6405 24.26C21.4772 24.0633 21.2772 23.9133 21.0405 23.81C20.8039 23.7033 20.5472 23.6483 20.2705 23.645C20.0039 23.6383 19.7589 23.6783 19.5355 23.765C19.3155 23.8517 19.1389 23.9733 19.0055 24.13C18.8755 24.2867 18.8105 24.4667 18.8105 24.67C18.8105 24.87 18.8689 25.0317 18.9855 25.155C19.1022 25.2783 19.2455 25.3767 19.4155 25.45C19.5889 25.52 19.7605 25.5783 19.9305 25.625L21.2605 26C21.4272 26.0467 21.6155 26.11 21.8255 26.19C22.0389 26.2667 22.2439 26.375 22.4405 26.515C22.6405 26.655 22.8055 26.8417 22.9355 27.075C23.0655 27.305 23.1305 27.595 23.1305 27.945C23.1305 28.3083 23.0572 28.6283 22.9105 28.905C22.7639 29.1783 22.5622 29.4083 22.3055 29.595C22.0522 29.7783 21.7589 29.9167 21.4255 30.01C21.0922 30.1033 20.7405 30.15 20.3705 30.15ZM23.2934 30L25.7484 26.355L23.3584 22.8H24.6384L26.3934 25.47L28.1384 22.8H29.4234L27.0334 26.355L29.4834 30H28.2034L26.3934 27.245L24.5784 30H23.2934Z" fill="white"/>
</svg>
