<svg width="123" height="9" viewBox="0 0 123 9" fill="none" xmlns="http://www.w3.org/2000/svg">
<path d="M5.07 7.99014L4.37 5.93014H1.55L0.85 7.99014H0L2.44 1.01014H3.51L5.95 7.99014H5.07ZM2.98 1.79014H2.93L1.75 5.19014H4.16L2.98 1.79014Z" fill="#979797"/>
<path d="M8.10625 1.01014H10.4462C10.8796 1.01014 11.2729 1.08347 11.6263 1.23014C11.9796 1.3768 12.2796 1.5968 12.5262 1.89014C12.7796 2.1768 12.9729 2.54014 13.1063 2.98014C13.2396 3.41347 13.3063 3.92014 13.3063 4.50014C13.3063 5.08014 13.2396 5.59014 13.1063 6.03014C12.9729 6.46347 12.7796 6.8268 12.5262 7.12014C12.2796 7.4068 11.9796 7.62347 11.6263 7.77014C11.2729 7.9168 10.8796 7.99014 10.4462 7.99014H8.10625V1.01014ZM10.4462 7.25014C10.7329 7.25014 10.9963 7.20347 11.2362 7.11014C11.4762 7.01014 11.6829 6.8668 11.8562 6.68014C12.0296 6.49347 12.1629 6.2668 12.2563 6.00014C12.3563 5.7268 12.4062 5.4168 12.4062 5.07014V3.93014C12.4062 3.58347 12.3563 3.2768 12.2563 3.01014C12.1629 2.7368 12.0296 2.5068 11.8562 2.32014C11.6829 2.13347 11.4762 1.99347 11.2362 1.90014C10.9963 1.80014 10.7329 1.75014 10.4462 1.75014H8.94625V7.25014H10.4462Z" fill="#979797"/>
<path d="M21.2552 2.11014H21.2052L20.6152 3.28014L18.9452 6.32014L17.2752 3.28014L16.6852 2.11014H16.6352V7.99014H15.8152V1.01014H16.9352L18.9352 4.77014H18.9852L20.9952 1.01014H22.0752V7.99014H21.2552V2.11014Z" fill="#979797"/>
<path d="M24.6005 7.99014V7.29014H25.5805V1.71014H24.6005V1.01014H27.4005V1.71014H26.4205V7.29014H27.4005V7.99014H24.6005Z" fill="#979797"/>
<path d="M31.6244 3.73014L30.7844 2.18014H30.7544V7.99014H29.9344V1.01014H30.9044L33.4544 5.27014L34.2944 6.82014H34.3244V1.01014H35.1444V7.99014H34.1744L31.6244 3.73014Z" fill="#979797"/>
<path d="M37.6747 7.99014V7.29014H38.6547V1.71014H37.6747V1.01014H40.4747V1.71014H39.4947V7.29014H40.4747V7.99014H37.6747Z" fill="#979797"/>
<path d="M44.9686 8.11014C44.4019 8.11014 43.9186 8.00347 43.5186 7.79014C43.1186 7.57014 42.7786 7.27014 42.4986 6.89014L43.1186 6.37014C43.3653 6.6968 43.6386 6.9468 43.9386 7.12014C44.2386 7.2868 44.5919 7.37014 44.9986 7.37014C45.4986 7.37014 45.8786 7.25014 46.1386 7.01014C46.4053 6.77014 46.5386 6.45014 46.5386 6.05014C46.5386 5.7168 46.4386 5.46014 46.2386 5.28014C46.0386 5.10014 45.7086 4.9568 45.2486 4.85014L44.6786 4.72014C44.0386 4.57347 43.5486 4.35347 43.2086 4.06014C42.8753 3.76014 42.7086 3.34014 42.7086 2.80014C42.7086 2.49347 42.7653 2.22014 42.8786 1.98014C42.9919 1.74014 43.1486 1.54014 43.3486 1.38014C43.5553 1.22014 43.7986 1.10014 44.0786 1.02014C44.3653 0.93347 44.6786 0.890137 45.0186 0.890137C45.5453 0.890137 45.9953 0.986803 46.3686 1.18014C46.7486 1.37347 47.0686 1.6568 47.3286 2.03014L46.6986 2.49014C46.5053 2.22347 46.2719 2.01347 45.9986 1.86014C45.7253 1.7068 45.3853 1.63014 44.9786 1.63014C44.5319 1.63014 44.1786 1.7268 43.9186 1.92014C43.6653 2.1068 43.5386 2.39014 43.5386 2.77014C43.5386 3.10347 43.6453 3.3568 43.8586 3.53014C44.0786 3.6968 44.4086 3.83014 44.8486 3.93014L45.4186 4.06014C46.1053 4.21347 46.6019 4.4468 46.9086 4.76014C47.2153 5.07347 47.3686 5.49014 47.3686 6.01014C47.3686 6.33014 47.3119 6.62014 47.1986 6.88014C47.0919 7.14014 46.9353 7.36014 46.7286 7.54014C46.5219 7.72014 46.2686 7.86014 45.9686 7.96014C45.6753 8.06014 45.3419 8.11014 44.9686 8.11014Z" fill="#979797"/>
<path d="M52.0422 1.75014V7.99014H51.2022V1.75014H48.9822V1.01014H54.2622V1.75014H52.0422Z" fill="#979797"/>
<path d="M57.2548 7.99014H56.4148V1.01014H59.1948C59.8082 1.01014 60.2848 1.18014 60.6248 1.52014C60.9715 1.86014 61.1448 2.35014 61.1448 2.99014C61.1448 3.50347 61.0248 3.9268 60.7848 4.26014C60.5515 4.5868 60.2048 4.80347 59.7448 4.91014L61.3448 7.99014H60.3948L58.8848 4.99014H57.2548V7.99014ZM59.1948 4.27014C59.5282 4.27014 59.7848 4.18347 59.9648 4.01014C60.1515 3.8368 60.2448 3.59014 60.2448 3.27014V2.75014C60.2448 2.43014 60.1515 2.18347 59.9648 2.01014C59.7848 1.8368 59.5282 1.75014 59.1948 1.75014H57.2548V4.27014H59.1948Z" fill="#979797"/>
<path d="M68.1813 7.99014L67.4813 5.93014H64.6613L63.9613 7.99014H63.1113L65.5513 1.01014H66.6213L69.0613 7.99014H68.1813ZM66.0913 1.79014H66.0413L64.8613 5.19014H67.2713L66.0913 1.79014Z" fill="#979797"/>
<path d="M72.9133 1.75014V7.99014H72.0733V1.75014H69.8533V1.01014H75.1333V1.75014H72.9133Z" fill="#979797"/>
<path d="M79.7006 8.11014C79.2473 8.11014 78.8373 8.03347 78.4706 7.88014C78.1106 7.72014 77.8006 7.49014 77.5406 7.19014C77.2873 6.88347 77.0906 6.5068 76.9506 6.06014C76.8106 5.6068 76.7406 5.0868 76.7406 4.50014C76.7406 3.91347 76.8106 3.3968 76.9506 2.95014C77.0906 2.50347 77.2873 2.1268 77.5406 1.82014C77.8006 1.51347 78.1106 1.28347 78.4706 1.13014C78.8373 0.970137 79.2473 0.890137 79.7006 0.890137C80.1473 0.890137 80.554 0.970137 80.9206 1.13014C81.2873 1.28347 81.5973 1.51347 81.8506 1.82014C82.1106 2.1268 82.3106 2.50347 82.4506 2.95014C82.5906 3.3968 82.6606 3.91347 82.6606 4.50014C82.6606 5.0868 82.5906 5.6068 82.4506 6.06014C82.3106 6.5068 82.1106 6.88347 81.8506 7.19014C81.5973 7.49014 81.2873 7.72014 80.9206 7.88014C80.554 8.03347 80.1473 8.11014 79.7006 8.11014ZM79.7006 7.36014C80.0006 7.36014 80.2773 7.3068 80.5306 7.20014C80.784 7.09347 81.0006 6.94014 81.1806 6.74014C81.3673 6.54014 81.5106 6.30014 81.6106 6.02014C81.7106 5.74014 81.7606 5.4268 81.7606 5.08014V3.92014C81.7606 3.57347 81.7106 3.26014 81.6106 2.98014C81.5106 2.70014 81.3673 2.46014 81.1806 2.26014C81.0006 2.06014 80.784 1.9068 80.5306 1.80014C80.2773 1.69347 80.0006 1.64014 79.7006 1.64014C79.4006 1.64014 79.124 1.69347 78.8706 1.80014C78.6173 1.9068 78.3973 2.06014 78.2106 2.26014C78.0306 2.46014 77.8906 2.70014 77.7906 2.98014C77.6906 3.26014 77.6406 3.57347 77.6406 3.92014V5.08014C77.6406 5.4268 77.6906 5.74014 77.7906 6.02014C77.8906 6.30014 78.0306 6.54014 78.2106 6.74014C78.3973 6.94014 78.6173 7.09347 78.8706 7.20014C79.124 7.3068 79.4006 7.36014 79.7006 7.36014Z" fill="#979797"/>
<path d="M86.0107 7.99014H85.1707V1.01014H87.9507C88.564 1.01014 89.0407 1.18014 89.3807 1.52014C89.7274 1.86014 89.9007 2.35014 89.9007 2.99014C89.9007 3.50347 89.7807 3.9268 89.5407 4.26014C89.3074 4.5868 88.9607 4.80347 88.5007 4.91014L90.1007 7.99014H89.1507L87.6407 4.99014H86.0107V7.99014ZM87.9507 4.27014C88.284 4.27014 88.5407 4.18347 88.7207 4.01014C88.9074 3.8368 89.0007 3.59014 89.0007 3.27014V2.75014C89.0007 2.43014 88.9074 2.18347 88.7207 2.01014C88.5407 1.8368 88.284 1.75014 87.9507 1.75014H86.0107V4.27014H87.9507Z" fill="#979797"/>
<path d="M97.5205 7.99014L95.2005 1.01014H96.1005L97.2505 4.53014L98.0205 7.15014H98.0705L98.8605 4.53014L100.02 1.01014H100.89L98.5405 7.99014H97.5205Z" fill="#979797"/>
<path d="M102.694 7.99014V7.29014H103.674V1.71014H102.694V1.01014H105.494V1.71014H104.514V7.29014H105.494V7.99014H102.694Z" fill="#979797"/>
<path d="M108.028 7.99014V1.01014H112.288V1.75014H108.868V4.09014H112.088V4.83014H108.868V7.25014H112.288V7.99014H108.028Z" fill="#979797"/>
<path d="M115.828 7.99014L114.128 1.01014H115.018L116.348 6.98014H116.368L117.018 4.37014L117.898 1.01014H118.858L119.708 4.37014L120.358 6.97014H120.388L120.988 4.37014L121.778 1.01014H122.638L120.848 7.99014H119.918L119.008 4.51014L118.368 1.95014H118.348L117.688 4.51014L116.758 7.99014H115.828Z" fill="#979797"/>
</svg>
