<svg width="173" height="25" viewBox="0 0 173 25" fill="none" xmlns="http://www.w3.org/2000/svg">
<g id="Layer_1" clip-path="url(#clip0_10245_311)">
<path id="Vector" d="M18.9363 11.9995C20.6419 11.0113 21.6434 9.35988 21.6434 7.37572C21.6434 3.55332 18.9551 1.24971 14.2694 1.04742C13.5012 1.01758 12.6987 1.01758 11.5292 1.01758H0.125V23.984H13.1784C14.3634 23.984 15.345 23.921 16.174 23.7939C20.2341 23.186 22.3785 20.8857 22.3785 17.1373C22.3785 14.5198 20.8453 12.8153 18.9408 11.9984H18.9363V11.9995ZM5.93598 5.94315H12.8148C15.4279 5.94315 15.8667 6.52458 15.8667 7.83003C15.8667 9.13549 15.3339 9.92915 12.5373 9.92915H5.93598V5.94315ZM12.6313 19.0198H5.93598V14.7652H13.3022C16.2525 14.7652 16.6615 15.7313 16.6615 16.7714C16.6615 18.1587 15.9872 19.0198 12.6313 19.0198Z" fill="black"/>
<path id="Vector_2" d="M37.3426 0.5C29.3838 0.5 25.2188 6.53758 25.2188 12.5C25.2188 18.4624 29.3838 24.5 37.3426 24.5C43.3514 24.5 49.4365 20.3791 49.4365 12.5C49.4365 4.62085 43.3525 0.5 37.3426 0.5ZM37.3426 19.3865C33.6241 19.3865 31.0297 16.5523 31.0297 12.4989C31.0297 8.44547 33.6274 5.61128 37.3426 5.61128C41.0577 5.61128 43.6255 8.44547 43.6255 12.4989C43.6255 16.5523 41.0423 19.3865 37.3426 19.3865Z" fill="black"/>
<path id="Vector_3" d="M94.022 1.01562H81.6992V23.9821H94.0518C101.778 23.9821 106.39 19.5971 106.39 12.2584C106.39 4.91983 101.766 1.01562 94.022 1.01562ZM94.022 18.8697H87.5102V6.1269H94.0518C96.9866 6.1269 100.488 7.18917 100.488 12.2573C100.488 16.5827 98.2545 18.8719 94.0209 18.8719V18.8686H94.022V18.8697Z" fill="black"/>
<path id="Vector_4" d="M72.1013 23.4327H71.8835L64.5847 1.01562H52.7461V23.9821H58.5571V1.56279H58.7748L66.0737 23.981H77.909V1.01562H72.1024V23.4338H72.1013V23.4327Z" fill="black"/>
<path id="Vector_5" d="M141.567 1.02871V1.0265H140.685V1.02981H140.654H138.113H137.781L129.019 23.4248H128.806L120.043 1.02871H119.822H117.25V1.02539H116.367V1.0276H114.308H113.977V23.9786H114.308H116.581H116.912V1.57919H117.163L125.915 23.9775H126.136H128.582H128.802V23.9786H129.134H131.688H132.02L140.771 1.57919H141.022V23.9797H141.354H143.627H143.959V1.02871H143.627H141.567Z" fill="#00EEBC"/>
<path id="Vector_6" d="M159.47 9.65763L151.395 1.03125H147.73L153.526 7.37171L159.47 9.65763Z" fill="#00EEBC"/>
<path id="Vector_7" d="M161.133 15.3457L169.208 23.9721H172.872L167.076 17.6316L161.133 15.3457Z" fill="#00EEBC"/>
<path id="Vector_8" d="M169.179 1.03125L147.73 23.9723H151.408L172.871 1.03125H169.179Z" fill="#00EEBC"/>
</g>
<defs>
<clipPath id="clip0_10245_311">
<rect width="172.748" height="24" fill="white" transform="translate(0.125 0.5)"/>
</clipPath>
</defs>
</svg>
