<svg width="66" height="32" viewBox="0 0 66 32" fill="none" xmlns="http://www.w3.org/2000/svg">
<g clip-path="url(#clip0_630_2616)">
<path d="M18.3165 22.1077L13.5393 22.1861C13.4554 22.1876 13.3749 22.155 13.3148 22.0964L9.88219 18.7377C9.82205 18.679 9.78779 18.5985 9.78639 18.5144L9.70878 13.6856C9.70738 13.6007 9.73954 13.5195 9.79758 13.4587L13.1204 9.98833C13.1784 9.92755 13.2582 9.89291 13.3414 9.8915L18.1186 9.81304C18.2019 9.81163 18.283 9.84414 18.3431 9.90281L21.7764 13.2615C21.8365 13.3201 21.8708 13.4007 21.8722 13.4848L21.9498 18.3136C21.9512 18.3984 21.9191 18.4797 21.861 18.5405L18.5382 22.0109C18.4802 22.0716 18.4004 22.1063 18.3172 22.1077M24.2867 19.248L24.2559 17.3552C24.2532 17.1792 24.3916 17.0343 24.5657 17.0315L26.2572 17.0039C26.4313 17.0011 26.5698 16.8562 26.567 16.6802L26.5397 14.9698C26.5369 14.7938 26.3936 14.6539 26.2194 14.6567L24.5273 14.6843C24.3531 14.6871 24.2098 14.5471 24.207 14.3711L24.1762 12.4748C24.1748 12.39 24.1406 12.3101 24.0804 12.2515L22.7351 10.9347C22.6099 10.8124 22.6071 10.611 22.7281 10.4845L23.9049 9.25539C24.0259 9.12887 24.0224 8.92743 23.8979 8.80516L22.6819 7.61563C22.5568 7.49335 22.3575 7.49689 22.2365 7.6227L21.0597 8.85181C20.9387 8.97832 20.7394 8.98115 20.6143 8.85888L19.2661 7.5393C19.206 7.48063 19.1256 7.44812 19.0417 7.44953L17.1691 7.48063C16.9949 7.48346 16.8516 7.34351 16.8488 7.16752L16.8215 5.45779C16.8187 5.2818 16.6754 5.14186 16.5013 5.14468L14.8098 5.17296C14.6357 5.17578 14.4972 5.32068 14.5 5.49667L14.5273 7.2064C14.5301 7.38239 14.3916 7.52728 14.2175 7.53011L12.3414 7.56121C12.2582 7.56262 12.1785 7.59725 12.1205 7.65804L10.8178 9.0179C10.6968 9.14442 10.4975 9.14725 10.3724 9.02497L9.15637 7.83544C9.0312 7.71317 8.83192 7.7167 8.71095 7.84251L7.53411 9.07162C7.41314 9.19814 7.41664 9.39957 7.5411 9.52185L8.7571 10.7114C8.88226 10.8337 8.88506 11.0351 8.76409 11.1616L7.45859 12.5243C7.40056 12.5851 7.36839 12.6664 7.36979 12.7512L7.40056 14.644C7.40335 14.82 7.2649 14.9649 7.09079 14.9677L5.39861 14.9952C5.22449 14.9981 5.08604 15.143 5.08884 15.319L5.11611 17.0287C5.11891 17.2047 5.26225 17.3446 5.43637 17.3418L7.12855 17.3142C7.30266 17.3114 7.44601 17.4513 7.4488 17.6273L7.47957 19.5237C7.48097 19.6078 7.51523 19.6883 7.57537 19.747L8.92072 21.0638C9.04589 21.186 9.04869 21.3875 8.92771 21.514L7.75088 22.7431C7.62991 22.8696 7.6334 23.071 7.75787 23.1933L8.97386 24.3829C9.09903 24.5051 9.29832 24.5016 9.41929 24.3758L10.5961 23.1467C10.7171 23.0202 10.9164 23.0173 11.0415 23.1396L12.3897 24.4592C12.4498 24.5178 12.5302 24.5504 12.6142 24.5489L14.4867 24.5179C14.6609 24.515 14.8042 24.655 14.807 24.831L14.8343 26.5407C14.8371 26.7167 14.9804 26.8566 15.1545 26.8538L16.8467 26.8262C17.0208 26.8234 17.1593 26.6785 17.1565 26.5025L17.1292 24.7921C17.1264 24.6161 17.2649 24.4712 17.439 24.4684L19.3151 24.4373C19.3983 24.4359 19.478 24.4012 19.536 24.3404L20.8387 22.9806C20.9597 22.8541 21.159 22.8512 21.2841 22.9735L22.5001 24.163C22.6253 24.2853 22.8246 24.2818 22.9456 24.156L24.1224 22.9269C24.2434 22.8003 24.2399 22.5989 24.1154 22.4766L22.8994 21.2871C22.7742 21.1648 22.7714 20.9634 22.8924 20.8369L24.1979 19.4742C24.2559 19.4134 24.2881 19.3321 24.2867 19.2473M27.0998 20.7393C27.2089 20.4609 27.4242 20.222 27.7158 20.0947C28.0109 19.9654 28.327 19.9711 28.6025 20.0813C28.878 20.1916 29.1122 20.4057 29.2402 20.704C29.4947 21.297 29.2276 21.9868 28.6374 22.2448C28.3459 22.3727 28.0263 22.3685 27.7508 22.2582C27.4753 22.148 27.241 21.9338 27.1131 21.6356C26.9851 21.3373 26.9907 21.0178 27.0998 20.7393ZM29.5611 24.3984C31.3247 23.6259 32.1351 21.5529 31.3708 19.7703C30.6065 17.9878 28.5556 17.1686 26.7921 17.9412C25.0286 18.7137 24.2182 20.7867 24.9825 22.5692C25.7467 24.3518 27.7976 25.1709 29.5611 24.3984ZM27.1138 11.2959C26.9963 11.021 26.9816 10.6987 27.0984 10.3997C27.2166 10.0972 27.4445 9.87524 27.7158 9.7565C27.9878 9.63776 28.3032 9.6215 28.6025 9.74095C29.1968 9.97843 29.4905 10.657 29.2542 11.2613C29.1374 11.5602 28.9081 11.7857 28.6367 11.9044C28.3647 12.0232 28.0494 12.0394 27.7501 11.92C27.4508 11.8005 27.2313 11.5701 27.1138 11.2959ZM31.4142 12.1243C32.1204 10.3177 31.2435 8.27224 29.4563 7.55838C27.669 6.84452 25.6454 7.73084 24.9391 9.5374C24.2329 11.344 25.1097 13.3894 26.897 14.1033C28.6843 14.8171 30.7079 13.9308 31.4142 12.1243ZM20.5178 4.60823C20.2423 4.49797 20.0059 4.28028 19.88 3.98555C19.7521 3.68728 19.7577 3.36781 19.8668 3.08933C19.9758 2.81086 20.1877 2.57408 20.4828 2.44474C21.0695 2.18747 21.7519 2.45746 22.0072 3.05399C22.1337 3.34873 22.1295 3.67173 22.0205 3.95021C21.9114 4.22868 21.6995 4.46546 21.4044 4.5948C21.1093 4.72414 20.7933 4.71849 20.5178 4.60823ZM24.1378 2.12032C23.3735 0.337793 21.3226 -0.481379 19.5591 0.291145C17.7956 1.06367 16.9852 3.13669 17.7494 4.91922C18.5137 6.70175 20.5646 7.52092 22.3281 6.7484C24.0916 5.97587 24.9021 3.90285 24.1378 2.12032ZM11.1751 4.59339C10.9031 4.71213 10.5842 4.72697 10.2885 4.60894C9.98917 4.48949 9.76961 4.25907 9.65214 3.98484C9.53466 3.7106 9.51858 3.39113 9.63675 3.08863C9.8717 2.48785 10.543 2.191 11.1408 2.4299C11.4366 2.54793 11.6597 2.77976 11.7772 3.05399C11.8946 3.32894 11.9107 3.6477 11.7925 3.95021C11.6744 4.25271 11.4471 4.47465 11.1751 4.59339ZM11.9946 0.247324C10.2073 -0.466536 8.18371 0.419781 7.47747 2.22634C6.77123 4.0329 7.64809 6.07836 9.43537 6.79222C11.2226 7.50608 13.2463 6.61976 13.9525 4.8132C14.6588 3.00664 13.7819 0.961183 11.9946 0.247324ZM4.55881 11.2606C4.44972 11.539 4.23436 11.7779 3.94277 11.9051C3.64769 12.0345 3.33163 12.0288 3.05612 11.9186C2.78062 11.8083 2.54637 11.5942 2.41841 11.2959C2.16388 10.7029 2.43099 10.0131 3.02116 9.75509C3.31275 9.62716 3.6323 9.6314 3.90781 9.74166C4.18331 9.85192 4.41756 10.0661 4.54552 10.3643C4.67348 10.6626 4.66789 10.9821 4.55881 11.2606ZM2.09745 7.60149C0.333946 8.37472 -0.476483 10.447 0.287796 12.2296C1.05208 14.0121 3.10297 14.8313 4.86648 14.0587C6.62998 13.2862 7.44041 11.2132 6.67613 9.43067C5.91185 7.64814 3.86096 6.82897 2.09745 7.60149ZM4.54412 20.704C4.6616 20.9789 4.67628 21.3012 4.55951 21.6002C4.44133 21.9027 4.21408 22.1247 3.94207 22.2434C3.67006 22.3621 3.3547 22.3784 3.05542 22.2589C2.46106 22.0215 2.16738 21.3429 2.40372 20.7386C2.5205 20.4397 2.74915 20.2142 3.02116 20.0955C3.29317 19.9767 3.60853 19.9605 3.90781 20.0799C4.20709 20.1994 4.42665 20.4298 4.54412 20.704ZM0.244443 19.8763C-0.461799 21.6829 0.415059 23.7284 2.20234 24.4422C3.98962 25.1561 6.01325 24.2698 6.71949 22.4632C7.42573 20.6566 6.54887 18.6112 4.76159 17.8973C2.97431 17.1835 0.950684 18.0698 0.244443 19.8763ZM11.1401 27.3924C11.4156 27.5026 11.652 27.7203 11.7779 28.0151C11.9058 28.3133 11.9002 28.6328 11.7911 28.9113C11.6821 29.1897 11.4702 29.4265 11.1751 29.5559C10.5884 29.8131 9.90596 29.5431 9.65074 28.9466C9.52417 28.6519 9.52837 28.3289 9.63745 28.0504C9.74654 27.7719 9.95841 27.5351 10.2535 27.4058C10.5486 27.2765 10.8646 27.2821 11.1401 27.3924ZM7.52013 29.8803C8.28441 31.6628 10.3353 32.482 12.0988 31.7095C13.8623 30.9369 14.6727 28.8639 13.9085 27.0814C13.1442 25.2989 11.0933 24.4797 9.32978 25.2522C7.56628 26.0247 6.75585 28.0978 7.52013 29.8803ZM20.4828 27.4065C20.7548 27.2878 21.0737 27.2729 21.3694 27.391C21.6687 27.5104 21.8883 27.7408 22.0058 28.0151C22.1232 28.29 22.1393 28.6088 22.0211 28.9113C21.7862 29.512 21.1149 29.8089 20.5171 29.57C20.2213 29.452 19.9982 29.2201 19.8807 28.9459C19.7633 28.671 19.7472 28.3522 19.8654 28.0497C19.9835 27.7472 20.2115 27.5252 20.4828 27.4065ZM19.664 31.7533C21.4513 32.4671 23.4749 31.5808 24.1811 29.7743C24.8874 27.9677 24.0105 25.9222 22.2232 25.2084C20.436 24.4945 18.4123 25.3808 17.7061 27.1874C16.9998 28.994 17.8767 31.0394 19.664 31.7533Z" fill="#F04C3A"/>
<path d="M36.9565 16.787C36.9565 15.8328 36.5418 15.2589 35.7776 15.2589C35.0133 15.2589 34.5986 15.8328 34.5986 16.787C34.5986 17.7412 35.0133 18.3151 35.7776 18.3151C36.5418 18.3151 36.9565 17.7412 36.9565 16.787ZM35.7776 18.7844C34.6315 18.7844 34.0532 17.9567 34.0532 16.7877C34.0532 15.6187 34.6315 14.791 35.7776 14.791C36.9236 14.791 37.497 15.6187 37.497 16.7877C37.497 17.9567 36.9236 18.7844 35.7776 18.7844Z" fill="#F04C3A"/>
<path d="M39.9683 16.881C39.9515 16.881 39.941 16.8697 39.9354 16.8535C39.8152 16.5283 39.5536 16.3516 39.1823 16.3516C38.6642 16.3516 38.353 16.7595 38.353 17.3334C38.353 17.9073 38.6642 18.3151 39.1823 18.3151C39.5536 18.3151 39.8152 18.1384 39.9354 17.8133C39.941 17.797 39.9515 17.7857 39.9683 17.7857H40.4536C40.4697 17.7857 40.4864 17.7914 40.4809 17.8133C40.3277 18.4254 39.8753 18.7844 39.1816 18.7844C38.3251 18.7844 37.8335 18.1942 37.8335 17.3334C37.8335 16.4725 38.3244 15.8823 39.1816 15.8823C39.8746 15.8823 40.3333 16.2463 40.4809 16.8535C40.4864 16.8754 40.4697 16.881 40.4536 16.881H39.9683Z" fill="#F04C3A"/>
<path d="M42.9368 16.881C42.9201 16.881 42.9096 16.8697 42.904 16.8535C42.7837 16.5283 42.5222 16.3516 42.1509 16.3516C41.6327 16.3516 41.3216 16.7595 41.3216 17.3334C41.3216 17.9073 41.6327 18.3151 42.1509 18.3151C42.5222 18.3151 42.7837 18.1384 42.904 17.8133C42.9096 17.797 42.9201 17.7857 42.9368 17.7857H43.4221C43.4382 17.7857 43.455 17.7914 43.4494 17.8133C43.2963 18.4254 42.8438 18.7844 42.1509 18.7844C41.2936 18.7844 40.8027 18.1942 40.8027 17.3334C40.8027 16.4725 41.2936 15.8823 42.1509 15.8823C42.8438 15.8823 43.3025 16.2463 43.4494 16.8535C43.455 16.8754 43.4382 16.881 43.4221 16.881H42.9368Z" fill="#F04C3A"/>
<path d="M45.9811 18.7292C45.9643 18.7292 45.9594 18.7179 45.9538 18.7017L45.8992 18.4536C45.8881 18.4204 45.8503 18.4317 45.8391 18.4479C45.7412 18.5914 45.4734 18.7844 45.1245 18.7844C44.2238 18.7844 43.9351 18.1998 43.9351 17.4825V15.9657C43.9351 15.9494 43.9455 15.9381 43.9623 15.9381H44.4266C44.4427 15.9381 44.4539 15.9494 44.4539 15.9657V17.4825C44.4539 17.9016 44.6392 18.3151 45.1797 18.3151C45.6377 18.3151 45.8999 17.9122 45.8999 17.4825V15.9657C45.8999 15.9494 45.9104 15.9381 45.9272 15.9381H46.3908C46.4069 15.9381 46.4181 15.9494 46.4181 15.9657V18.7017C46.4181 18.7179 46.4069 18.7292 46.3908 18.7292H45.9818H45.9811Z" fill="#F04C3A"/>
<path d="M48.3329 16.3516C47.8364 16.3516 47.5525 16.7602 47.5525 17.3334C47.5525 17.9066 47.8364 18.3151 48.3329 18.3151C48.8566 18.3151 49.1678 17.9073 49.1678 17.3334C49.1678 16.7595 48.8566 16.3516 48.3329 16.3516ZM47.47 15.9375C47.4868 15.9375 47.4917 15.9488 47.4973 15.965L47.5518 16.1912C47.563 16.2244 47.5952 16.2131 47.6064 16.1968C47.7483 16.0371 48.114 15.8823 48.3867 15.8823C49.1832 15.8823 49.6852 16.4725 49.6852 17.3334C49.6852 18.1942 49.1832 18.7844 48.3867 18.7844C48.0049 18.7844 47.6714 18.5469 47.6064 18.4699C47.5791 18.4367 47.5518 18.4586 47.5518 18.4812V19.7944C47.5518 19.8107 47.5406 19.822 47.5246 19.822H47.061C47.0442 19.822 47.0337 19.8114 47.0337 19.7944V15.9657C47.0337 15.9495 47.0442 15.9382 47.061 15.9382H47.47V15.9375Z" fill="#F04C3A"/>
<path d="M51.9396 17.5044C51.9396 17.4882 51.9291 17.4769 51.9123 17.4769H51.176C50.6795 17.4769 50.5208 17.7087 50.5208 17.9017C50.5208 18.0946 50.7117 18.3151 51.0669 18.3151C51.727 18.3151 51.9403 17.9179 51.9403 17.5815V17.5044H51.9396ZM52.7689 18.7017C52.7689 18.718 52.7584 18.7293 52.7416 18.7293H52.6381C52.327 18.7293 52.1305 18.6247 52.0598 18.448C52.0487 18.4204 52.0214 18.4261 52.0102 18.4367C51.8794 18.5689 51.5683 18.7844 51.0662 18.7844C50.3844 18.7844 50.002 18.4261 50.002 17.9017C50.002 17.4217 50.4222 17.0634 51.1753 17.0634H51.7592C51.8794 17.0634 51.9389 16.9588 51.9389 16.8818C51.9389 16.6556 51.9116 16.3524 51.262 16.3524C50.7928 16.3524 50.6075 16.5729 50.6075 16.8542C50.6075 16.8704 50.5963 16.8818 50.5802 16.8818H50.1159C50.0998 16.8818 50.0887 16.8704 50.0887 16.8542C50.0887 16.2032 50.6453 15.8831 51.262 15.8831C52.0151 15.8831 52.457 16.2082 52.457 16.8818V18.0791C52.457 18.1618 52.5227 18.2614 52.6367 18.2614H52.7402C52.757 18.2614 52.7675 18.2727 52.7675 18.289V18.7024L52.7689 18.7017Z" fill="#F04C3A"/>
<path d="M54.4707 18.7017C54.4707 18.718 54.4595 18.7293 54.4435 18.7293H54.0232C53.5701 18.7293 53.3079 18.5307 53.3079 18.0783V16.3792C53.3079 16.3629 53.2974 16.3516 53.2806 16.3516H52.7953C52.7793 16.3516 52.7681 16.3403 52.7681 16.3241V15.9657C52.7681 15.9495 52.7793 15.9382 52.7953 15.9382H53.2806C53.2974 15.9382 53.3079 15.9268 53.3079 15.9106V15.1656C53.3079 15.1487 53.3191 15.1381 53.3352 15.1381H53.7995C53.8155 15.1381 53.8267 15.1494 53.8267 15.1656V15.9106C53.8267 15.9268 53.8372 15.9382 53.854 15.9382H54.4435C54.4595 15.9382 54.4707 15.9495 54.4707 15.9657V16.3241C54.4707 16.3403 54.4595 16.3516 54.4435 16.3516H53.854C53.8379 16.3516 53.8267 16.3629 53.8267 16.3792V17.9843C53.8267 18.1554 53.9029 18.26 54.1211 18.26H54.4428C54.4589 18.26 54.47 18.2713 54.47 18.2875V18.701L54.4707 18.7017Z" fill="#F04C3A"/>
<path d="M55.5021 18.7017C55.5021 18.718 55.4909 18.7293 55.4749 18.7293H55.0113C54.9945 18.7293 54.984 18.718 54.984 18.7017V15.9657C54.984 15.9488 54.9945 15.9382 55.0113 15.9382H55.4749C55.4909 15.9382 55.5021 15.9495 55.5021 15.9657V18.7017ZM54.9672 15.4575C54.9511 15.4575 54.9399 15.4462 54.9399 15.43V14.873C54.9399 14.8561 54.9504 14.8455 54.9672 14.8455H55.5133C55.5294 14.8455 55.5406 14.8568 55.5406 14.873V15.43C55.5406 15.4462 55.5301 15.4575 55.5133 15.4575H54.9672Z" fill="#F04C3A"/>
<path d="M57.4011 16.3516C56.883 16.3516 56.5662 16.7595 56.5662 17.3334C56.5662 17.9073 56.883 18.3151 57.4011 18.3151C57.9193 18.3151 58.236 17.9073 58.236 17.3334C58.236 16.7595 57.9248 16.3516 57.4011 16.3516ZM57.4011 18.7844C56.5438 18.7844 56.0474 18.1942 56.0474 17.3334C56.0474 16.4725 56.5438 15.8823 57.4011 15.8823C58.2584 15.8823 58.7549 16.4725 58.7549 17.3334C58.7549 18.1942 58.2528 18.7844 57.4011 18.7844Z" fill="#F04C3A"/>
<path d="M59.7361 15.9375C59.7529 15.9375 59.7578 15.9488 59.7634 15.965L59.818 16.2131C59.8235 16.2463 59.8669 16.235 59.8781 16.2188C59.9872 16.0534 60.2277 15.8823 60.5927 15.8823C61.3836 15.8823 61.7821 16.4668 61.7821 17.1842V18.701C61.7821 18.7173 61.7716 18.7286 61.7549 18.7286H61.2913C61.2752 18.7286 61.264 18.7173 61.264 18.701V17.1842C61.264 16.7651 61.0787 16.3516 60.5382 16.3516C60.0802 16.3516 59.818 16.7545 59.818 17.1842V18.701C59.818 18.7173 59.8068 18.7286 59.7907 18.7286H59.3271C59.3103 18.7286 59.2998 18.7173 59.2998 18.701V15.965C59.2998 15.9488 59.3103 15.9375 59.3271 15.9375H59.7361Z" fill="#F04C3A"/>
<path d="M64.2003 17.5044C64.2003 17.4882 64.1898 17.4769 64.173 17.4769H63.4367C62.9403 17.4769 62.7815 17.7087 62.7815 17.9017C62.7815 18.0946 62.9724 18.3151 63.327 18.3151C63.9877 18.3151 64.2003 17.9179 64.2003 17.5815V17.5044ZM65.0296 18.7017C65.0296 18.718 65.0191 18.7293 65.0024 18.7293H64.8989C64.5877 18.7293 64.3912 18.6247 64.3206 18.448C64.3094 18.4204 64.2821 18.4261 64.2709 18.4367C64.1402 18.5689 63.829 18.7844 63.327 18.7844C62.6452 18.7844 62.2627 18.4261 62.2627 17.9017C62.2627 17.4217 62.6829 17.0634 63.436 17.0634H64.0199C64.1402 17.0634 64.1996 16.9588 64.1996 16.8818C64.1996 16.6556 64.1723 16.3524 63.5227 16.3524C63.0535 16.3524 62.8682 16.5729 62.8682 16.8542C62.8682 16.8704 62.8571 16.8818 62.841 16.8818H62.3767C62.3606 16.8818 62.3494 16.8704 62.3494 16.8542C62.3494 16.2032 62.906 15.8831 63.5227 15.8831C64.2758 15.8831 64.7178 16.2082 64.7178 16.8818V18.0791C64.7178 18.1618 64.7835 18.2614 64.8975 18.2614H65.001C65.0177 18.2614 65.0282 18.2727 65.0282 18.289V18.7024L65.0296 18.7017Z" fill="#F04C3A"/>
<path d="M65.5092 14.8455H65.9728C65.9882 14.8455 66.0001 14.8582 66.0001 14.873V18.701C66.0001 18.7166 65.9882 18.7286 65.9728 18.7286H65.5092C65.4938 18.7286 65.4819 18.7159 65.4819 18.701V14.873C65.4819 14.8575 65.4938 14.8455 65.5092 14.8455Z" fill="#F04C3A"/>
<path d="M34.926 21.8702C34.9204 21.8596 34.9099 21.8483 34.8994 21.8483H33.8569C33.8408 21.8483 33.8296 21.8377 33.8296 21.8207V21.4115C33.8296 21.3952 33.8401 21.3846 33.8569 21.3846H36.5091C36.5252 21.3846 36.5357 21.3952 36.5357 21.4115V21.8207C36.5357 21.837 36.5252 21.8483 36.5091 21.8483H35.4665C35.4504 21.8483 35.4393 21.8589 35.4393 21.8759V25.2006C35.4393 25.2169 35.4288 25.2282 35.412 25.2282H34.9533C34.9372 25.2282 34.926 25.2176 34.926 25.2006V21.8702Z" fill="#F04C3A"/>
<path d="M37.2596 21.3847C37.2757 21.3847 37.2862 21.3953 37.2862 21.4123V22.7333C37.2862 22.7609 37.324 22.7715 37.3456 22.7439C37.5079 22.5368 37.7722 22.411 38.0533 22.411C38.8903 22.411 39.2308 22.9899 39.2308 23.6995V25.2007C39.2308 25.217 39.2203 25.2283 39.2042 25.2283H38.7448C38.7287 25.2283 38.7176 25.2177 38.7176 25.2007V23.6995C38.7176 23.2846 38.5344 22.8754 37.9994 22.8754C37.5456 22.8754 37.2862 23.274 37.2862 23.6995V25.2007C37.2862 25.217 37.2757 25.2283 37.2596 25.2283H36.8002C36.7841 25.2283 36.7729 25.2177 36.7729 25.2007V21.4116C36.7729 21.3953 36.7841 21.384 36.8002 21.384H37.2596V21.3847Z" fill="#F04C3A"/>
<path d="M40.8252 22.8746C40.3014 22.8746 40.0581 23.339 40.0581 23.5956C40.0581 23.6118 40.0742 23.6231 40.0854 23.6231H41.5545C41.5706 23.6231 41.5818 23.6125 41.5818 23.5956C41.5818 23.2846 41.3601 22.8746 40.8259 22.8746M40.0854 24.0324C40.0693 24.0324 40.0581 24.0437 40.0581 24.0599C40.0581 24.4586 40.3441 24.819 40.8252 24.819C41.2084 24.819 41.3979 24.655 41.5111 24.4366C41.5216 24.4147 41.5328 24.4091 41.5489 24.4091H42.03C42.0461 24.4091 42.0622 24.4147 42.0566 24.4366C41.916 24.9717 41.4356 25.2827 40.8252 25.2827C40.0148 25.2827 39.5127 24.6982 39.5127 23.8465C39.5127 22.9948 39.9882 22.4103 40.8252 22.4103C41.6622 22.4103 42.1433 22.9948 42.1433 23.8465C42.1433 23.9009 42.1377 23.9553 42.1272 23.9991C42.1216 24.0154 42.1055 24.0317 42.0894 24.0317H40.0854V24.0324Z" fill="#F04C3A"/>
<path d="M43.6879 22.8747C43.2341 22.8747 42.9747 23.2733 42.9747 23.6988V25.2C42.9747 25.2163 42.9642 25.2276 42.9481 25.2276H42.4887C42.4726 25.2276 42.4614 25.217 42.4614 25.2V22.4923C42.4614 22.476 42.4726 22.4647 42.4887 22.4647H42.8936C42.9096 22.4647 42.9152 22.4753 42.9208 22.4923L42.9747 22.7383C42.9859 22.7708 43.018 22.7602 43.0341 22.7439C43.218 22.558 43.4173 22.411 43.6879 22.411H43.9634C43.9795 22.411 43.99 22.4216 43.99 22.4386V22.8478C43.99 22.8641 43.9795 22.8754 43.9634 22.8754H43.6879V22.8747Z" fill="#F04C3A"/>
<path d="M45.9947 24.016C45.9947 23.9998 45.9835 23.9892 45.9674 23.9892H45.2381C44.7465 23.9892 44.5899 24.2182 44.5899 24.4097C44.5899 24.6013 44.7794 24.819 45.1297 24.819C45.7835 24.819 45.994 24.426 45.994 24.0931V24.0167L45.9947 24.016ZM46.8156 25.2006C46.8156 25.2169 46.8051 25.2282 46.7883 25.2282H46.6856C46.3772 25.2282 46.1835 25.1243 46.1129 24.9497C46.1024 24.9221 46.0751 24.9278 46.0639 24.9391C45.9346 25.0699 45.6262 25.2833 45.1297 25.2833C44.455 25.2833 44.0767 24.9285 44.0767 24.4097C44.0767 23.9348 44.4927 23.5799 45.2381 23.5799H45.8164C45.9353 23.5799 45.9947 23.4761 45.9947 23.3997C45.9947 23.1757 45.9674 22.8753 45.3248 22.8753C44.8605 22.8753 44.6766 23.0937 44.6766 23.3722C44.6766 23.3884 44.6661 23.3997 44.6493 23.3997H44.1906C44.1746 23.3997 44.1634 23.3891 44.1634 23.3722C44.1634 22.7276 44.7144 22.4116 45.3248 22.4116C46.0702 22.4116 46.5079 22.7339 46.5079 23.3997V24.5843C46.5079 24.6663 46.5723 24.7645 46.6863 24.7645H46.789C46.8051 24.7645 46.8163 24.7751 46.8163 24.7921V25.2013L46.8156 25.2006Z" fill="#F04C3A"/>
<path d="M48.4685 22.8746C47.977 22.8746 47.6959 23.2789 47.6959 23.8464C47.6959 24.414 47.977 24.8182 48.4685 24.8182C48.9867 24.8182 49.295 24.414 49.295 23.8464C49.295 23.2789 48.9874 22.8746 48.4685 22.8746ZM47.6148 22.4653C47.6308 22.4653 47.6364 22.4759 47.642 22.4929L47.6959 22.717C47.7071 22.7495 47.7392 22.7389 47.7497 22.7226C47.8903 22.5643 48.2518 22.4116 48.5224 22.4116C49.3111 22.4116 49.8076 22.9961 49.8076 23.8471C49.8076 24.6981 49.3111 25.2833 48.5224 25.2833C48.1441 25.2833 47.8147 25.0487 47.7497 24.9723C47.7224 24.9398 47.6959 24.961 47.6959 24.9829V26.282C47.6959 26.2983 47.6854 26.3096 47.6693 26.3096H47.2099C47.1938 26.3096 47.1826 26.2983 47.1826 26.282V22.4929C47.1826 22.4766 47.1938 22.4653 47.2099 22.4653H47.6148Z" fill="#F04C3A"/>
<path d="M49.8461 25.8722C49.8461 25.8559 49.8566 25.8446 49.8734 25.8446H50.4838C50.8027 25.8446 50.8999 25.6368 50.8027 25.3477L49.8412 22.4923C49.8356 22.4704 49.8573 22.4647 49.8741 22.4647H50.3657C50.3818 22.4647 50.3873 22.4753 50.3929 22.4923L51.1006 24.6869C51.1111 24.7194 51.1439 24.7194 51.1544 24.6869L51.8677 22.4923C51.8732 22.476 51.8781 22.4647 51.8949 22.4647H52.3865C52.4026 22.4647 52.4187 22.4753 52.4138 22.4923L51.3334 25.7025C51.1824 26.145 51.0146 26.309 50.5775 26.309H49.8755C49.8594 26.309 49.8482 26.2977 49.8482 26.2814V25.8722H49.8461Z" fill="#F04C3A"/>
<path d="M36.1628 30.455C36.1789 30.455 36.1894 30.4444 36.1845 30.4274L35.5524 28.4293C35.5412 28.3968 35.509 28.3968 35.4979 28.4293L34.8608 30.4274C34.8552 30.4437 34.8664 30.455 34.8825 30.455H36.1628ZM35.8601 27.8837C35.8762 27.8837 35.8873 27.8943 35.8922 27.9112L37.1509 31.7003C37.1565 31.7166 37.1404 31.7279 37.1236 31.7279H36.616C36.5999 31.7279 36.5943 31.7173 36.5894 31.7003L36.3412 30.9193C36.3356 30.8974 36.3195 30.8925 36.3034 30.8925H34.7371C34.721 30.8925 34.7098 30.9031 34.7049 30.9193L34.4511 31.7003C34.4455 31.7166 34.4406 31.7279 34.4238 31.7279H33.9218C33.9057 31.7279 33.884 31.7223 33.8889 31.7003L35.1636 27.9112C35.1692 27.895 35.1797 27.8837 35.1965 27.8837H35.8608H35.8601Z" fill="#F04C3A"/>
<path d="M39.4315 31.7272C39.4154 31.7272 39.4098 31.7166 39.4042 31.6996L39.3504 31.4537C39.3399 31.4212 39.3014 31.4318 39.2909 31.448C39.1937 31.5901 38.9287 31.7809 38.5833 31.7809C37.6925 31.7809 37.4058 31.2021 37.4058 30.4924V28.9912C37.4058 28.975 37.4163 28.9644 37.433 28.9644H37.8917C37.9078 28.9644 37.919 28.975 37.919 28.9912V30.4924C37.919 30.9073 38.1029 31.3166 38.6371 31.3166C39.091 31.3166 39.3504 30.9179 39.3504 30.4924V28.9912C39.3504 28.975 39.3609 28.9644 39.3776 28.9644H39.8364C39.8524 28.9644 39.8636 28.975 39.8636 28.9912V31.6989C39.8636 31.7152 39.8531 31.7265 39.8364 31.7265H39.4315V31.7272Z" fill="#F04C3A"/>
<path d="M42.1372 29.898C42.1212 29.898 42.1107 29.8866 42.1107 29.8704C42.1107 29.57 41.8729 29.3735 41.4352 29.3735C41.0303 29.3735 40.852 29.5537 40.852 29.7227C40.852 30.0337 41.2408 30.0393 41.5114 30.0775C42.0519 30.1538 42.6994 30.2033 42.6994 30.9016C42.6994 31.5243 42.1862 31.7808 41.5114 31.7808C40.6905 31.7808 40.2905 31.3441 40.2905 30.8196C40.2905 30.8034 40.3017 30.792 40.3178 30.792H40.7716C40.7877 30.792 40.8038 30.8026 40.8038 30.8196C40.8038 31.0924 41.0793 31.3165 41.5114 31.3165C41.7869 31.3165 42.1869 31.2564 42.1869 30.9016C42.1869 30.5906 41.7387 30.5687 41.5114 30.5411C40.9933 30.4811 40.3395 30.3991 40.3395 29.722C40.3395 29.2746 40.7667 28.9084 41.4359 28.9084C42.1051 28.9084 42.6246 29.2251 42.6246 29.869C42.6246 29.8852 42.619 29.8965 42.6029 29.8965H42.1386L42.1372 29.898Z" fill="#F04C3A"/>
<path d="M44.4007 31.6996C44.4007 31.7159 44.3902 31.7272 44.3735 31.7272H43.9574C43.5092 31.7272 43.2498 31.5307 43.2498 31.0833V29.4018C43.2498 29.3856 43.2393 29.3743 43.2225 29.3743H42.7421C42.726 29.3743 42.7148 29.363 42.7148 29.3467V28.9919C42.7148 28.9756 42.7253 28.9643 42.7421 28.9643H43.2225C43.2386 28.9643 43.2498 28.953 43.2498 28.9368V28.1996C43.2498 28.1833 43.2603 28.1727 43.277 28.1727H43.7357C43.7518 28.1727 43.763 28.1833 43.763 28.1996V28.9368C43.763 28.953 43.7735 28.9643 43.7903 28.9643H44.3735C44.3895 28.9643 44.4007 28.9749 44.4007 28.9919V29.3467C44.4007 29.363 44.3902 29.3743 44.3735 29.3743H43.7903C43.7742 29.3743 43.763 29.3849 43.763 29.4018V30.9907C43.763 31.1596 43.8385 31.2635 44.0546 31.2635H44.3735C44.3895 31.2635 44.4007 31.2741 44.4007 31.2911V31.7003V31.6996Z" fill="#F04C3A"/>
<path d="M46.0541 29.3743C45.6003 29.3743 45.3409 29.7729 45.3409 30.1984V31.6996C45.3409 31.7159 45.3304 31.7272 45.3143 31.7272H44.8549C44.8388 31.7272 44.8276 31.7166 44.8276 31.6996V28.9919C44.8276 28.9756 44.8388 28.9643 44.8549 28.9643H45.2598C45.2759 28.9643 45.2814 28.9749 45.287 28.9919L45.3409 29.2372C45.3521 29.2704 45.3842 29.2591 45.4003 29.2428C45.5842 29.0569 45.7835 28.9099 46.0541 28.9099H46.3296C46.3457 28.9099 46.3562 28.9205 46.3562 28.9375V29.3467C46.3562 29.363 46.3457 29.3743 46.3296 29.3743H46.0541Z" fill="#F04C3A"/>
<path d="M48.3599 30.5151C48.3599 30.4988 48.3494 30.4875 48.3327 30.4875H47.6034C47.1118 30.4875 46.9551 30.7165 46.9551 30.908C46.9551 31.0996 47.1446 31.3173 47.495 31.3173C48.1488 31.3173 48.3592 30.9243 48.3592 30.5914V30.5151H48.3599ZM49.1809 31.6996C49.1809 31.7159 49.1704 31.7272 49.1536 31.7272H49.0508C48.7424 31.7272 48.5487 31.6233 48.4781 31.4487C48.4676 31.4212 48.4404 31.4268 48.4292 31.4381C48.2998 31.5689 47.9914 31.7823 47.495 31.7823C46.8202 31.7823 46.4419 31.4275 46.4419 30.9087C46.4419 30.4338 46.858 30.079 47.6034 30.079H48.1816C48.3005 30.079 48.3599 29.9751 48.3599 29.8987C48.3599 29.6747 48.3327 29.3743 47.6901 29.3743C47.2258 29.3743 47.0419 29.5927 47.0419 29.8712C47.0419 29.8874 47.0314 29.8987 47.0146 29.8987H46.5559C46.5398 29.8987 46.5286 29.8881 46.5286 29.8712C46.5286 29.2266 47.0796 28.9106 47.6901 28.9106C48.4355 28.9106 48.8732 29.2329 48.8732 29.8987V31.0833C48.8732 31.1653 48.9375 31.2636 49.0515 31.2636H49.1543C49.1704 31.2636 49.1816 31.2742 49.1816 31.2911V31.7004L49.1809 31.6996Z" fill="#F04C3A"/>
<path d="M49.5754 27.8837H50.0348C50.0495 27.8837 50.0621 27.8957 50.0621 27.9112V31.7003C50.0621 31.7152 50.0502 31.7279 50.0348 31.7279H49.5754C49.5607 31.7279 49.5488 31.7159 49.5488 31.701V27.9119C49.5488 27.8971 49.5607 27.8844 49.5761 27.8844L49.5754 27.8837Z" fill="#F04C3A"/>
<path d="M51.2397 31.6996C51.2397 31.7159 51.2292 31.7272 51.2131 31.7272H50.7537C50.7376 31.7272 50.7265 31.7166 50.7265 31.6996V28.9919C50.7265 28.9756 50.7376 28.9643 50.7537 28.9643H51.2131C51.2292 28.9643 51.2397 28.9749 51.2397 28.9919V31.6996ZM50.7104 28.4894C50.6943 28.4894 50.6831 28.4788 50.6831 28.4618V27.9105C50.6831 27.8942 50.6936 27.8829 50.7104 27.8829H51.2509C51.267 27.8829 51.2775 27.8935 51.2775 27.9105V28.4618C51.2775 28.4781 51.267 28.4894 51.2509 28.4894H50.7104Z" fill="#F04C3A"/>
<path d="M53.5948 30.5151C53.5948 30.4988 53.5843 30.4875 53.5675 30.4875H52.8382C52.3466 30.4875 52.19 30.7165 52.19 30.908C52.19 31.0996 52.3795 31.3173 52.7298 31.3173C53.3836 31.3173 53.5941 30.9243 53.5941 30.5914V30.5151H53.5948ZM54.4157 31.6996C54.4157 31.7159 54.4052 31.7272 54.3884 31.7272H54.2857C53.9773 31.7272 53.7836 31.6233 53.713 31.4487C53.7025 31.4212 53.6752 31.4268 53.664 31.4381C53.5347 31.5689 53.2263 31.7823 52.7298 31.7823C52.0551 31.7823 51.6768 31.4275 51.6768 30.9087C51.6768 30.4338 52.0928 30.079 52.8382 30.079H53.4165C53.5354 30.079 53.5948 29.9751 53.5948 29.8987C53.5948 29.6747 53.5675 29.3743 52.9249 29.3743C52.4606 29.3743 52.2767 29.5927 52.2767 29.8712C52.2767 29.8874 52.2655 29.8987 52.2494 29.8987H51.7907C51.7746 29.8987 51.7635 29.8881 51.7635 29.8712C51.7635 29.2266 52.3145 28.9106 52.9249 28.9106C53.6703 28.9106 54.108 29.2329 54.108 29.8987V31.0833C54.108 31.1653 54.1724 31.2636 54.2864 31.2636H54.3891C54.4052 31.2636 54.4164 31.2742 54.4164 31.2911V31.7004L54.4157 31.6996Z" fill="#F04C3A"/>
</g>
<defs>
<clipPath id="clip0_630_2616">
<rect width="66" height="32" fill="white"/>
</clipPath>
</defs>
</svg>
